PathFileType	4	(X/Y/Z)	./resultDataOpenSim/trcMotMarkerGrf/sub09/qtm-01-05.trc
DataRate	CameraRate	NumFrames	NumMarkers	Units	OrigDataRate	OrigDataStartFrame	OrigNumFrames
250.000000	250.000000	9	24	m	250.000000	59	465
Frame#	Time	L.Toe.Tip			R.Toe.Tip			L.Ankle.Lat			R.Ankle.Lat			L.Ankle.Med			R.Ankle.Med			L.Heel			R.Heel			L.Knee.Lat			R.Knee.Lat			L.Knee.Med			R.Knee.Med			L.Thigh.Upper			R.Thigh.Upper			L.ASIS			R.ASIS			V.Sacral			L.Acromium			R.Acromium			C7			L.Elbow			R.Elbow			L.Wrist.Lat			R.Wrist.Lat
		X1	Y1	Z1	X2	Y2	Z2	X3	Y3	Z3	X4	Y4	Z4	X5	Y5	Z5	X6	Y6	Z6	X7	Y7	Z7	X8	Y8	Z8	X9	Y9	Z9	X10	Y10	Z10	X11	Y11	Z11	X12	Y12	Z12	X13	Y13	Z13	X14	Y14	Z14	X15	Y15	Z15	X16	Y16	Z16	X17	Y17	Z17	X18	Y18	Z18	X19	Y19	Z19	X20	Y20	Z20	X21	Y21	Z21	X22	Y22	Z22	X23	Y23	Z23	X24	Y24	Z24

59	0.232	-1.3705253	0.075507147	-0.02439335	-0.58561909	0.039198612	0.080769129	-1.3836256	0.22662235	-0.091538316	-0.7306778	0.053197978	0.1227343	-1.362876	0.22027571	0.0034828844	-0.72858951	0.092150836	0.030130967	-1.4453298	0.27667483	-0.051320681	-0.79960559	0.029088318	0.080991739	-1.0139195	0.42090511	-0.10490018	-0.71039149	0.50744589	0.17962935	-1.008637	0.40862826	0.020297643	-0.73064561	0.49436346	0.054261195	-0.95538069	0.82803624	-0.11885179	-0.9237422	0.84944263	0.25222051	-0.8606305	0.91227073	-0.063867188	-0.85367369	0.93638877	0.17456642	-1.0248813	0.97970599	0.05774388	-0.83165701	1.37233	-0.10220757	-0.88447745	1.384767	0.22321126	-0.92455053	1.4318999	0.05391572	-0.95913971	1.0231319	-0.18491555	-1.0406144	1.0527204	0.29383802	-0.76048152	0.84080383	-0.16095419	-0.91235439	0.81443495	0.33279547
60	0.236	-1.3583801	0.078928467	-0.026518781	-0.58552698	0.03913583	0.080627651	-1.3713636	0.23056081	-0.091640818	-0.73052111	0.052972736	0.12239851	-1.3505507	0.22362583	0.0034915517	-0.7283351	0.092165821	0.030053218	-1.432697	0.28082721	-0.051470595	-0.80022728	0.030975188	0.078401073	-1.000041	0.42058992	-0.10447805	-0.70608505	0.50747587	0.17939974	-0.99543592	0.40881825	0.021022393	-0.72718483	0.49452768	0.054150776	-0.948531	0.82860872	-0.11850336	-0.91825127	0.85046743	0.25229414	-0.85444574	0.91328644	-0.063712355	-0.84712368	0.93740194	0.17484822	-1.0186577	0.98107783	0.057564066	-0.82538106	1.3733914	-0.10194837	-0.87745201	1.3858467	0.22358406	-0.91791363	1.4331395	0.054466818	-0.95329912	1.0243744	-0.18469287	-1.0336148	1.0536768	0.29446077	-0.75601651	0.84060767	-0.16120987	-0.90439104	0.81554366	0.33255682
61	0.24	-1.3456928	0.082159949	-0.028497529	-0.58544593	0.03905943	0.080497387	-1.3587823	0.23427554	-0.091609196	-0.7305283	0.052773911	0.12207814	-1.3378102	0.22669223	0.0035877839	-0.72808378	0.092173208	0.02999225	-1.419986	0.28448119	-0.051058838	-0.80097702	0.032616386	0.076109445	-0.98617207	0.42056612	-0.1040043	-0.7021078	0.50742255	0.17918385	-0.98114908	0.40909803	0.021796195	-0.72385827	0.49470125	0.054123433	-0.94174791	0.82928537	-0.11816522	-0.91376452	0.85160758	0.25219389	-0.84831082	0.91438525	-0.063590261	-0.84053989	0.93855178	0.175058	-1.0125055	0.98256774	0.057372205	-0.81914261	1.3745325	-0.10171007	-0.87041832	1.3869959	0.22393009	-0.91133394	1.4344526	0.054992257	-0.94753555	1.0256138	-0.18455915	-1.0266496	1.0547147	0.29511224	-0.75159685	0.84049007	-0.16146501	-0.89643217	0.81674874	0.33229162
62	0.244	-1.3324196	0.085173532	-0.030411409	-0.58538326	0.03898279	0.080366565	-1.3458806	0.23773759	-0.091464874	-0.73073359	0.052671217	0.12189539	-1.3245027	0.22945895	0.0036527399	-0.72787649	0.092143995	0.029942588	-1.4071487	0.28768394	-0.05024918	-0.80146917	0.033412993	0.075104912	-0.97231126	0.42081769	-0.10349928	-0.6985065	0.50726698	0.17899697	-0.96653746	0.40946802	0.022559064	-0.72062542	0.49484508	0.054150988	-0.93502317	0.83007194	-0.11783414	-0.9095174	0.85291377	0.25209009	-0.84219209	0.91558111	-0.063473138	-0.83388134	0.93985228	0.17520222	-1.0063707	0.98412581	0.05743678	-0.81295548	1.3757621	-0.10148509	-0.86337526	1.3882121	0.22424564	-0.90482223	1.4358629	0.055416518	-0.94180634	1.0269369	-0.18429252	-1.0197197	1.0558374	0.29579691	-0.74721868	0.8404592	-0.16170871	-0.88848937	0.81804897	0.33199671
63	0.248	-1.3186056	0.087935509	-0.032294276	-0.58534714	0.038920518	0.080253725	-1.3326757	0.24093328	-0.091236414	-0.73097656	0.052674176	0.12185783	-1.3106199	0.2319447	0.0036387355	-0.72771159	0.092101023	0.029909311	-1.3941566	0.29047766	-0.049236954	-0.80171402	0.033649259	0.074954192	-0.95842736	0.42132039	-0.10296585	-0.69517658	0.50702421	0.17887503	-0.95223359	0.40994198	0.023266387	-0.7174487	0.49493347	0.054200867	-0.92836014	0.83097065	-0.11751827	-0.90459952	0.85444827	0.25214977	-0.83608892	0.91687321	-0.063351292	-0.82711479	0.94131046	0.17529516	-1.0002366	0.98570752	0.057825962	-0.8068401	1.3770874	-0.1012736	-0.85634867	1.3894966	0.22454215	-0.89837874	1.4373839	0.055671911	-0.93609689	1.0283586	-0.18385762	-1.0128176	1.0570442	0.29651493	-0.742883	0.84052146	-0.16193292	-0.88056833	0.81944119	0.33167248
64	0.252	-1.3043241	0.090424374	-0.034140148	-0.5853403	0.03888501	0.080176409	-1.3191961	0.24384059	-0.090939269	-0.73114462	0.052716893	0.12189369	-1.2964071	0.23414516	0.0036428366	-0.72756084	0.092085872	0.029900562	-1.3809937	0.29288582	-0.048211249	-0.80182904	0.033690924	0.075047086	-0.94451554	0.42207541	-0.10240175	-0.69195326	0.50675201	0.17884478	-0.93833696	0.41054224	0.023944622	-0.71433519	0.4949523	0.054272572	-0.92175936	0.83198401	-0.11722903	-0.89880235	0.85621684	0.25235214	-0.83002596	0.9182593	-0.063225867	-0.8202398	0.94291565	0.17536047	-0.99410705	0.98732112	0.058442717	-0.80080706	1.378513	-0.10107808	-0.84936328	1.3908542	0.22483487	-0.89199435	1.4390088	0.055789094	-0.93038197	1.0299086	-0.18315753	-1.0059333	1.0583338	0.29726028	-0.73860324	0.8406803	-0.16214212	-0.87266742	0.82092012	0.33132445
65	0.256	-1.289637	0.092642323	-0.035918932	-0.58535927	0.038876661	0.080133472	-1.3054651	0.2464296	-0.090576332	-0.73124225	0.052726806	0.12193308	-1.2822009	0.23602194	0.0038203487	-0.72741464	0.092107839	0.029916864	-1.3676599	0.29491399	-0.047294917	-0.80185911	0.033515861	0.075328506	-0.93065197	0.42310086	-0.10181563	-0.68875018	0.50652372	0.1789048	-0.92462257	0.4112998	0.024657518	-0.71131442	0.49489698	0.05438236	-0.91518258	0.83311835	-0.11696895	-0.8925073	0.85816619	0.2525875	-0.8240192	0.91974725	-0.063088698	-0.81331012	0.94463324	0.17542059	-0.98798792	0.98901655	0.059155336	-0.79485707	1.3800387	-0.10089878	-0.84242125	1.3922875	0.22513153	-0.88565504	1.4407182	0.055930082	-0.92463787	1.0316255	-0.1820799	-0.99906013	1.0597072	0.29802539	-0.7344027	0.84093606	-0.1623502	-0.86478604	0.82248359	0.33096139
66	0.26	-1.2745925	0.094605502	-0.037606204	-0.58539793	0.038886763	0.080111527	-1.2915016	0.24867653	-0.090147598	-0.73135622	0.052710941	0.12196803	-1.2681617	0.23755418	0.0042422914	-0.72728264	0.092151122	0.029954441	-1.3541765	0.29655973	-0.04649567	-0.80175078	0.032718914	0.076260497	-0.91693488	0.42439218	-0.10121731	-0.68562459	0.50637338	0.1790519	-0.91093077	0.41225233	0.025441492	-0.70838639	0.49477636	0.05452708	-0.90856403	0.83438109	-0.11673766	-0.88603521	0.86022492	0.25284335	-0.8180603	0.92134579	-0.062922183	-0.80646677	0.94641839	0.17548476	-0.98189081	0.99081916	0.059886768	-0.78898853	1.3816615	-0.1007375	-0.83551682	1.3937938	0.22543228	-0.87936052	1.442499	0.056254896	-0.91890036	1.0334749	-0.18079133	-0.99219598	1.0611625	0.29880389	-0.7302964	0.8412891	-0.16256612	-0.85692869	0.8241357	0.33058905
67	0.264	-1.2592393	0.096329409	-0.039186398	-0.58545127	0.038912406	0.080098891	-1.2773333	0.25057436	-0.089656707	-0.73157309	0.052734474	0.12202673	-1.2543052	0.23876828	0.0048807229	-0.72717344	0.092203159	0.030011634	-1.3405701	0.29782893	-0.045743602	-0.8014501	0.031042026	0.078126089	-0.90336578	0.42589838	-0.10059896	-0.68272077	0.50626452	0.17929966	-0.89729994	0.41342478	0.026285883	-0.70552138	0.49461337	0.054680682	-0.90190666	0.83577502	-0.1165394	-0.87949908	0.86233289	0.25315378	-0.81212682	0.92305261	-0.062720645	-0.7999714	0.94823029	0.17554948	-0.97582945	0.99269853	0.060630005	-0.78319918	1.3833787	-0.10059486	-0.82865437	1.3953658	0.22573528	-0.87311435	1.4443503	0.056777947	-0.91324015	1.0353805	-0.17959849	-0.98534124	1.0626915	0.29959182	-0.7262761	0.84174068	-0.16278848	-0.84910326	0.82588058	0.33020891
